<svg version="1.1" id="Layer_1" xmlns="http://www.w3.org/2000/svg" xmlns:xlink="http://www.w3.org/1999/xlink" x="0px" y="0px" width="100%" viewBox="0 0 1634 1070" enable-background="new 0 0 1634 1070" xml:space="preserve">

<path fill="#0070C0" opacity="1.000000" stroke="none" d="
M1025.870728,366.636627 
	C1027.687378,366.757812 1029.504150,366.984497 1031.320801,366.984955 
	C1104.936768,367.002747 1178.552612,367.000702 1252.168579,366.999268 
	C1258.993896,366.999146 1258.999023,366.993256 1258.999268,360.124298 
	C1259.000732,311.324585 1259.264893,262.522430 1258.815918,213.726852 
	C1258.702148,201.352295 1256.716553,188.937271 1254.838623,176.655899 
	C1253.469727,167.702469 1247.412720,161.687790 1239.671631,157.336365 
	C1227.232422,150.344177 1214.025024,146.785873 1199.648560,147.951111 
	C1195.697510,148.271362 1191.698608,147.999802 1187.034424,147.999802 
	C1187.034424,143.435394 1187.034424,139.178986 1187.557983,134.461761 
	C1259.332520,134.000504 1330.583618,134.000076 1401.834717,133.999634 
	C1402.200806,137.879745 1402.817505,141.765488 1402.730713,145.635452 
	C1402.712402,146.452316 1400.142334,147.833786 1398.706055,147.890289 
	C1392.236084,148.144836 1385.743408,147.819153 1379.272949,148.067368 
	C1366.613403,148.552963 1355.050293,152.905457 1344.802124,159.983765 
	C1337.872192,164.770325 1334.397705,172.532883 1333.147583,180.754379 
	C1331.918213,188.838333 1331.666992,197.071014 1330.863037,206.099945 
	C1330.507935,210.274887 1330.074463,213.588272 1330.073486,216.901779 
	C1330.038940,329.059692 1330.038696,441.217621 1330.078247,553.375549 
	C1330.079468,556.853699 1330.555420,560.331726 1330.810059,563.809814 
	C1331.862061,573.078796 1332.773682,582.366394 1333.998901,591.612427 
	C1335.831299,605.440002 1345.854858,611.979248 1357.331909,616.901794 
	C1369.113647,621.955078 1381.479614,623.626648 1394.300903,623.090027 
	C1403.984131,622.684753 1402.946167,622.016113 1402.998535,631.954346 
	C1403.006348,633.421997 1402.999634,634.889832 1402.999634,636.677307 
	C1330.920654,636.677307 1259.236328,636.677307 1187.275879,636.677307 
	C1187.275879,632.253357 1187.275879,627.994812 1187.275879,623.000061 
	C1194.212646,623.000061 1201.163940,623.375916 1208.058838,622.913391 
	C1218.838745,622.190369 1229.138672,619.759583 1238.682739,614.116516 
	C1249.355835,607.805969 1254.446777,598.113586 1255.831177,586.575195 
	C1257.495239,572.705139 1258.766724,558.700684 1258.861084,544.745361 
	C1259.196777,495.107666 1258.959839,445.466156 1258.508545,395.132996 
	C1256.598755,394.294006 1255.120117,394.020935 1253.641479,394.020508 
	C1179.463867,393.999969 1105.286133,393.995361 1031.108521,394.049072 
	C1029.387939,394.050323 1027.667847,394.737518 1025.947510,395.104767 
	C1025.947510,395.104767 1025.945435,394.947388 1025.669800,395.197876 
	C1025.260864,396.764862 1025.010986,398.081421 1025.010986,399.397949 
	C1025.011475,451.217407 1025.020752,503.036896 1025.086792,554.856262 
	C1025.091064,558.165405 1025.556519,561.473999 1025.807373,564.782837 
	C1026.883301,574.057922 1027.599487,583.392761 1029.126587,592.592957 
	C1031.011841,603.950684 1039.099976,610.155823 1048.811035,615.040405 
	C1064.170654,622.765930 1080.497192,624.058655 1097.634033,622.731750 
	C1097.634033,627.609375 1097.634033,631.990356 1097.634033,636.689087 
	C1026.053833,636.689087 954.456726,636.689087 882.429688,636.689087 
	C882.429688,632.448181 882.429688,628.068054 882.429688,623.000122 
	C887.617493,623.000122 892.884399,622.986694 898.151184,623.002808 
	C911.647522,623.044128 924.485474,620.405579 935.907043,612.922119 
	C943.475891,607.963013 948.300964,600.748108 949.809631,591.841492 
	C951.281799,583.150940 952.829529,574.331299 952.869385,565.561584 
	C953.397949,449.123260 953.795471,332.683777 953.820374,216.244461 
	C953.823120,203.201492 951.849915,190.080917 949.871460,177.137207 
	C948.030334,165.092026 939.026672,158.801285 928.671936,154.017624 
	C916.862732,148.562042 904.457642,147.257477 891.668762,147.975189 
	C888.698547,148.141861 885.710938,147.999802 882.034424,147.999802 
	C882.034424,143.439758 882.034424,139.181198 882.557983,134.461792 
	C950.064514,134.002411 1017.047546,134.003906 1084.030518,134.005280 
	C1096.912231,134.005539 1096.912231,134.005341 1097.233887,146.929321 
	C1095.209106,147.286118 1093.185303,147.944962 1091.159546,147.950531 
	C1078.379150,147.985764 1065.802002,147.892075 1053.408691,152.728745 
	C1038.836182,158.415848 1029.747437,167.662781 1028.048218,183.470261 
	C1027.295410,190.473236 1026.665283,197.489395 1025.893311,205.353317 
	C1025.560181,209.011887 1025.101807,211.816406 1025.097900,214.621536 
	C1025.030151,263.872742 1025.010620,313.124084 1025.030518,362.375366 
	C1025.031128,363.795868 1025.578369,365.216217 1025.870728,366.636627 
z" data-index="1" style="opacity: 1;"></path>
<path fill="#0170C0" opacity="1.000000" stroke="none" d="
M471.167450,647.002197 
	C458.929932,647.335876 447.159698,647.892395 435.386871,647.952759 
	C411.076141,648.077393 387.340698,644.093750 364.161224,636.920166 
	C340.836731,629.701660 319.250519,618.981140 299.636078,604.321106 
	C285.312103,593.615234 272.368622,581.617371 260.987976,567.717957 
	C247.613907,551.383911 235.837158,534.092834 226.667297,515.131470 
	C216.165771,493.416534 208.505310,470.681183 205.058228,446.732697 
	C203.281525,434.389221 201.741867,421.955963 201.145798,409.512970 
	C200.474548,395.500336 200.153000,381.371216 201.156769,367.398895 
	C203.232330,338.507263 209.487244,310.358185 220.273087,283.442627 
	C230.433746,258.087158 243.797729,234.514114 261.137604,213.195831 
	C279.889374,190.141693 301.907043,171.068512 327.537659,156.116409 
	C349.417664,143.352280 372.635376,133.745483 397.398682,128.465149 
	C410.021332,125.773598 422.970154,124.450462 435.834015,123.107758 
	C444.542542,122.198776 453.364136,121.972115 462.127777,122.074356 
	C481.411987,122.299309 500.497742,124.946815 518.724365,131.104614 
	C535.858459,136.893341 552.421997,144.366241 569.260071,151.038879 
	C574.254333,153.018021 579.202820,155.761200 584.395508,156.435883 
	C591.761230,157.392929 598.645325,154.559143 603.857361,149.147278 
	C610.114258,142.650436 613.816650,134.587143 615.929871,125.884033 
	C616.646606,122.932198 617.851013,121.704773 620.930542,121.946960 
	C624.052612,122.192505 627.209106,122.001152 630.427368,122.001152 
	C630.979492,126.375519 631.712463,130.401352 631.957825,134.456696 
	C632.736389,147.327438 633.161865,160.220917 634.042603,173.083771 
	C635.202026,190.018143 636.680664,206.930511 637.986389,223.855087 
	C638.392761,229.121506 638.731262,234.394272 639.016907,239.668686 
	C639.705078,252.377869 640.293701,265.092621 641.027527,277.799042 
	C641.309387,282.678802 641.876770,287.542084 642.255981,291.765350 
	C641.370117,292.585602 641.258789,292.782623 641.127502,292.796844 
	C630.345215,293.969238 630.307129,293.980408 627.026062,283.770294 
	C619.027039,258.878906 608.571350,235.181015 593.361389,213.752716 
	C575.253174,188.241364 551.612427,169.877274 522.228333,159.167542 
	C508.045135,153.998138 493.327454,151.328583 478.215851,149.816345 
	C452.486176,147.241547 427.665680,150.709366 403.523285,159.111374 
	C378.633789,167.773376 357.395416,182.349609 340.281799,202.389572 
	C325.093689,220.174850 313.514893,240.348770 306.203918,262.539185 
	C300.348938,280.310516 295.711975,298.520111 291.351746,316.730865 
	C289.264313,325.449127 288.753082,334.597473 288.094147,343.592499 
	C287.127960,356.781281 286.415527,370.000641 286.068054,383.219391 
	C285.734131,395.922119 285.190369,408.703430 286.166809,421.339844 
	C288.545380,452.120880 293.973022,482.404938 306.549866,510.834320 
	C314.324738,528.408997 324.252411,544.687561 337.380096,559.137268 
	C351.636383,574.829285 368.309967,586.941345 386.987793,596.353821 
	C404.293152,605.074646 422.671356,611.138062 442.057190,612.872437 
	C457.196655,614.226990 472.533691,615.676758 487.630188,614.706726 
	C515.218567,612.934082 541.346191,605.574646 565.136780,590.504578 
	C581.214844,580.320007 594.892822,567.541321 607.496460,553.688965 
	C619.722351,540.251892 630.595337,525.583923 642.295959,511.168701 
	C645.910339,513.569153 649.938416,516.244385 654.608704,519.346130 
	C644.184143,534.695129 634.814880,550.113098 623.775879,564.224976 
	C615.104919,575.309692 604.790466,585.234192 594.420715,594.824890 
	C586.139954,602.483582 577.045715,609.415527 567.660034,615.694702 
	C548.139954,628.753906 526.616455,637.408447 503.569427,641.959351 
	C493.004272,644.045532 482.283661,645.344421 471.167450,647.002197 
z" data-index="2" style="opacity: 1;"></path>
<path fill="#0070C0" opacity="1.000000" stroke="none" d="
M790.000000,462.000000 
	C790.000000,340.242645 790.000000,218.985306 790.000000,97.364166 
	C794.022278,97.364166 797.728577,97.364166 801.721802,97.364166 
	C801.721802,275.140808 801.721802,452.796265 801.721802,630.725830 
	C797.919556,630.725830 794.326233,630.725830 790.000000,630.725830 
	C790.000000,574.632080 790.000000,518.566040 790.000000,462.000000 
z" data-index="3" style="opacity: 1;"></path>
<path fill="#0472C1" opacity="1.000000" stroke="none" d="
M497.122253,856.018738 
	C496.159515,855.529907 495.628021,855.050903 495.096527,854.571899 
	C495.767517,854.055969 496.445862,853.081421 497.108337,853.092102 
	C509.369324,853.289185 521.627197,853.702576 533.888367,853.853455 
	C540.343689,853.932983 546.318237,854.512451 552.094543,858.313049 
	C563.244873,865.649597 563.471558,885.467957 550.469421,892.154175 
	C547.436340,893.713928 544.316833,895.105591 540.527222,896.913208 
	C552.891479,910.226440 558.134155,929.826416 578.663818,935.241150 
	C578.400635,935.816711 578.137451,936.392212 577.874207,936.967773 
	C570.700317,936.967773 563.351013,937.877197 556.434326,936.543335 
	C553.451599,935.968079 551.247864,930.836121 548.892273,927.625916 
	C542.542664,918.972473 536.106506,910.371216 530.103577,901.479858 
	C527.295654,897.320801 523.680237,897.837219 518.570007,898.252991 
	C519.067444,908.708740 519.318176,919.207092 520.322632,929.632751 
	C520.478882,931.254883 523.936890,932.840332 526.134766,933.877563 
	C527.431030,934.489258 529.251770,933.989319 531.210693,933.989319 
	C529.540527,937.200928 505.741760,938.351501 494.821014,935.417847 
	C495.939331,934.938660 497.058380,934.046753 498.175842,934.048767 
	C504.411713,934.059875 506.834656,930.897888 506.905334,925.158264 
	C507.149261,905.344727 507.139893,885.524902 506.923889,865.710693 
	C506.843201,858.308838 504.380829,856.178040 497.122253,856.018738 
M542.487061,865.050537 
	C536.270264,856.667786 527.936462,857.544556 519.361755,859.468994 
	C519.211670,860.062439 519.063538,860.377380 519.062256,860.692993 
	C519.030945,868.354614 519.005310,876.016235 518.999084,883.677917 
	C518.989990,894.949524 519.044861,895.185852 530.152039,892.925232 
	C543.478088,890.213074 550.627747,877.722229 542.487061,865.050537 
z" data-index="4" style="opacity: 1;"></path>
<path fill="#0271C0" opacity="1.000000" stroke="none" d="
M1348.259521,896.918335 
	C1348.174561,906.396606 1347.928833,915.877075 1348.065063,925.352112 
	C1348.146729,931.042664 1350.436646,933.223145 1356.034790,933.972229 
	C1357.293701,934.140686 1358.566040,934.209351 1361.278564,934.454773 
	C1359.567871,935.834961 1358.873535,936.883606 1358.169800,936.889954 
	C1346.886597,936.992615 1335.602173,936.962341 1324.318115,936.962341 
	C1324.153809,936.536133 1323.989502,936.109924 1323.825195,935.683655 
	C1324.745239,935.115662 1325.620239,934.153931 1326.592407,934.042847 
	C1333.426514,933.262329 1335.863525,931.172424 1335.929443,924.259521 
	C1336.118530,904.456909 1336.081665,884.650757 1335.947021,864.847290 
	C1335.905640,858.760620 1333.618530,856.809631 1327.171997,855.977234 
	C1326.013184,855.827576 1324.932739,855.070251 1324.015015,854.126953 
	C1334.468262,851.670349 1358.495972,852.793579 1359.847412,855.232605 
	C1359.610596,855.452820 1359.384399,855.846130 1359.131592,855.864136 
	C1350.690796,856.466553 1347.922363,857.447754 1347.989136,868.030029 
	C1348.038208,875.816162 1347.998779,883.602844 1347.998779,891.935486 
	C1360.676636,891.935486 1372.931885,891.935486 1385.881836,891.497925 
	C1386.444092,881.739197 1386.311646,872.417908 1386.179199,863.096680 
	C1385.579224,858.393860 1382.473389,856.588623 1378.174072,855.971680 
	C1376.735840,855.765381 1375.368530,855.065796 1374.355591,853.579102 
	C1386.389526,853.579102 1398.423462,853.579102 1410.457275,853.579102 
	C1406.585449,857.151062 1399.024780,855.474304 1398.734375,864.018555 
	C1398.338257,865.926941 1398.044556,867.074280 1398.042603,868.222107 
	C1398.012573,886.011841 1398.001831,903.801758 1398.054565,921.591370 
	C1398.058960,923.049744 1398.556030,924.506592 1398.824341,925.964172 
	C1399.389404,931.062988 1401.848999,933.445557 1406.876953,934.028503 
	C1408.276123,934.190735 1409.620483,934.826233 1410.989990,935.244629 
	C1410.914917,935.662537 1410.839722,936.080383 1410.764526,936.498291 
	C1398.623047,936.498291 1386.481445,936.498291 1373.212646,936.498291 
	C1377.528687,932.332520 1386.205078,935.014954 1386.284302,926.079468 
	C1386.698486,918.563538 1386.969116,911.803833 1386.944824,905.045166 
	C1386.935059,902.348389 1386.274048,899.653870 1385.909424,896.958374 
	C1385.909424,896.958374 1386.037598,896.937744 1385.680420,896.801453 
	C1376.896973,896.455322 1368.471313,896.125183 1360.044312,896.088745 
	C1356.117310,896.071777 1352.187866,896.624084 1348.259521,896.918335 
z" data-index="5"></path>
<path fill="#0271C0" opacity="1.000000" stroke="none" d="
M983.179138,863.097229 
	C982.579224,858.394836 979.474243,856.588623 975.174622,855.971741 
	C973.736267,855.765381 972.368713,855.066101 971.355408,853.578796 
	C983.389221,853.578796 995.423035,853.578796 1007.456848,853.578796 
	C1003.585449,857.150818 996.024841,855.474121 995.734436,864.017944 
	C995.338379,865.926453 995.044434,867.073792 995.042480,868.221619 
	C995.012573,886.011719 995.001526,903.801880 995.054260,921.591858 
	C995.058594,923.050293 995.555969,924.507202 995.824219,925.964844 
	C996.389587,931.063110 998.849670,933.445618 1003.877441,934.028442 
	C1005.276550,934.190674 1006.620667,934.826477 1007.990051,935.244995 
	C1007.914062,935.662842 1007.838074,936.080688 1007.762085,936.498535 
	C995.620972,936.498535 983.479858,936.498535 970.211975,936.498535 
	C974.529175,932.332825 983.204956,935.014587 983.284424,926.079224 
	C983.698730,918.563354 983.969299,911.803711 983.944946,905.045044 
	C983.935242,902.348267 983.273987,899.653870 982.909302,896.958374 
	C982.909302,896.958374 983.037659,896.937622 982.680542,896.801392 
	C973.897095,896.455322 965.471313,896.125244 957.044250,896.088867 
	C953.117188,896.071899 949.187744,896.624207 945.259399,896.918457 
	C945.174500,906.396667 944.928833,915.877136 945.065125,925.352173 
	C945.146973,931.042664 947.436768,933.223206 953.034729,933.972290 
	C954.293640,934.140686 955.565918,934.209412 958.279114,934.454956 
	C956.567871,935.835144 955.873535,936.883545 955.169739,936.889893 
	C943.886658,936.992615 932.602234,936.962341 921.318176,936.962341 
	C921.153870,936.536255 920.989563,936.110107 920.825317,935.684021 
	C921.745178,935.115906 922.620117,934.154053 923.592163,934.043030 
	C930.426697,933.262268 932.863525,931.172791 932.929504,924.259766 
	C933.118591,904.457153 933.081726,884.651062 932.947083,864.847595 
	C932.905640,858.760742 930.618408,856.809509 924.172424,855.977234 
	C923.013550,855.827637 921.933044,855.070618 921.040161,853.874695 
	C933.173706,852.924805 945.060730,852.986755 956.948059,853.040649 
	C956.915100,853.771912 956.882141,854.503174 956.849182,855.234375 
	C956.610596,855.452759 956.384521,855.846008 956.131592,855.864075 
	C947.689575,856.466736 944.922852,857.448608 944.989197,868.029907 
	C945.038025,875.816895 944.998657,883.604370 944.998657,891.935486 
	C957.676575,891.935486 969.931702,891.935486 982.881714,891.497925 
	C983.444092,881.739380 983.311646,872.418274 983.179138,863.097229 
z" data-index="6" style="opacity: 1;"></path>
<path fill="#0572C1" opacity="1.000000" stroke="none" d="
M802.575073,858.860107 
	C795.438049,859.320190 792.881042,861.809570 790.071960,870.965759 
	C789.765991,871.962769 789.326050,872.924133 788.865540,873.861389 
	C788.807190,873.980164 788.243042,873.850464 787.003052,873.795471 
	C787.405334,867.052246 787.807617,860.308533 788.227051,853.277344 
	C808.980103,853.277344 829.675354,853.277344 851.006531,853.277344 
	C841.376221,867.078796 832.021545,880.481384 822.670898,893.886780 
	C814.219177,906.003601 805.772034,918.123535 797.437622,930.865601 
	C802.688843,931.652649 807.827637,932.000305 812.960999,931.933411 
	C819.409058,931.849426 825.852783,931.425903 832.298340,931.148926 
	C841.005554,930.789551 844.964844,924.887878 847.983032,917.810059 
	C848.626831,916.300232 849.623474,914.940796 850.457581,913.512085 
	C850.944702,913.738098 851.431824,913.964111 851.918945,914.190125 
	C850.554504,921.714722 849.190063,929.239380 847.829407,936.743042 
	C824.641357,936.743042 801.924438,936.743042 777.405762,936.743042 
	C795.983521,910.384705 813.853699,885.030212 831.516907,859.021484 
	C821.731628,858.531494 812.153381,858.695801 802.575073,858.860107 
z" data-index="7" style="opacity: 1;"></path>
<path fill="#0371C1" opacity="1.000000" stroke="none" d="
M430.154938,864.816528 
	C431.165833,855.707825 423.059937,856.706726 417.685486,854.677307 
	C417.865387,854.296387 418.045288,853.915466 418.225189,853.534546 
	C439.594147,853.534546 460.963104,853.534546 482.820770,853.534546 
	C483.289490,859.475464 483.772614,865.598694 484.255707,871.721863 
	C483.669678,871.940979 483.083649,872.160095 482.497620,872.379211 
	C481.672272,870.998596 480.593903,869.708191 480.063629,868.222290 
	C477.140137,860.030457 474.415192,858.004944 465.808411,858.001282 
	C458.498016,857.998169 451.187653,858.029480 443.149353,858.438477 
	C442.560272,869.324890 442.699097,879.818359 442.837952,890.311768 
	C451.014587,890.139282 459.263428,890.509155 467.320190,889.436401 
	C469.501770,889.145935 471.196075,884.551147 472.925323,881.812805 
	C473.658051,880.652588 473.904266,879.185120 474.755524,876.766602 
	C477.289490,885.493958 476.262695,906.528320 473.619080,907.939880 
	C473.086761,906.098694 472.494507,904.291748 472.045624,902.449890 
	C470.940552,897.915588 467.846405,896.062561 463.443970,896.032288 
	C456.956207,895.987793 450.467987,896.018555 443.205383,896.331360 
	C442.570679,906.874695 442.710510,917.103943 442.850342,927.333130 
	C444.434082,928.879028 445.989319,931.715515 447.606445,931.751282 
	C455.325989,931.921631 463.064240,931.370667 470.792206,931.000305 
	C477.127411,930.696655 480.545197,926.310364 483.707367,921.590027 
	C485.285187,919.234680 486.936859,916.928833 489.680389,915.008667 
	C489.737640,916.188843 490.149628,917.491150 489.792450,918.528625 
	C487.997223,923.742981 486.113251,928.934937 483.993195,934.023376 
	C483.490234,935.230591 481.965820,936.852295 480.899841,936.860779 
	C459.983856,937.028259 439.066254,936.985291 418.148956,936.985291 
	C418.021271,936.348816 417.893585,935.712280 417.765900,935.075806 
	C419.175476,934.713013 420.568512,934.137024 421.997620,934.026184 
	C426.933533,933.643250 429.701263,930.959412 430.262634,925.234802 
	C430.594482,905.203796 430.684631,885.955505 430.737183,866.707092 
	C430.738892,866.077454 430.357666,865.446716 430.154938,864.816528 
z" data-index="8" style="opacity: 1;"></path>
<path fill="#0371C1" opacity="1.000000" stroke="none" d="
M287.850342,927.333130 
	C289.434082,928.879028 290.989349,931.715576 292.606445,931.751221 
	C300.325989,931.921631 308.064240,931.370667 315.792206,931.000305 
	C322.127411,930.696716 325.545197,926.310364 328.707367,921.590027 
	C330.285187,919.234680 331.936859,916.928833 334.680298,915.008667 
	C334.737579,916.188843 335.149567,917.491150 334.792389,918.528625 
	C332.997253,923.742981 331.113312,928.934937 328.993286,934.023376 
	C328.490295,935.230652 326.965790,936.852234 325.899811,936.860718 
	C304.985138,937.028198 284.068787,936.985291 263.152771,936.985291 
	C263.023804,936.348816 262.894867,935.712280 262.765900,935.075806 
	C264.175476,934.713013 265.568512,934.136963 266.997620,934.026123 
	C271.933533,933.643188 274.701263,930.959412 275.262634,925.234802 
	C275.594452,905.203796 275.684601,885.955505 275.737183,866.707092 
	C275.738922,866.077454 275.357666,865.446716 275.154938,864.816528 
	C276.165833,855.707825 268.059937,856.706726 262.685486,854.677307 
	C262.865387,854.296387 263.045288,853.915466 263.225189,853.534546 
	C284.594147,853.534546 305.963104,853.534546 327.820831,853.534546 
	C328.289581,859.475464 328.772705,865.598633 329.255829,871.721863 
	C328.669800,871.940979 328.083740,872.160095 327.497681,872.379150 
	C326.672333,870.998535 325.593933,869.708252 325.063660,868.222290 
	C322.140137,860.030457 319.415192,858.004883 310.808411,858.001282 
	C303.498016,857.998169 296.187653,858.029480 288.149353,858.438477 
	C287.560303,869.324890 287.699127,879.818359 287.837952,890.311768 
	C296.014587,890.139282 304.263428,890.509155 312.320221,889.436462 
	C314.501740,889.145935 316.195984,884.551086 317.925323,881.812805 
	C318.658020,880.652588 318.904266,879.185120 319.755524,876.766663 
	C322.289490,885.493958 321.262695,906.528320 318.619080,907.939880 
	C318.086761,906.098694 317.494507,904.291748 317.045624,902.449890 
	C315.940552,897.915588 312.846405,896.062561 308.443970,896.032288 
	C301.956207,895.987732 295.467987,896.018555 288.205383,896.331360 
	C287.570648,906.874695 287.710480,917.103943 287.850342,927.333130 
z" data-index="9" style="opacity: 1;"></path>
<path fill="#0371C1" opacity="1.000000" stroke="none" d="
M1037.850342,927.332886 
	C1039.433960,928.878906 1040.989136,931.715454 1042.606201,931.751221 
	C1050.325684,931.921631 1058.063965,931.370667 1065.791870,931.000305 
	C1072.126953,930.696655 1075.545166,926.310913 1078.707031,921.590393 
	C1080.281372,919.239990 1081.929443,916.939209 1084.680298,915.008423 
	C1084.737671,916.188477 1085.149902,917.490723 1084.792603,918.528137 
	C1082.997314,923.742432 1081.113159,928.934326 1078.993164,934.022827 
	C1078.490234,935.230164 1076.966064,936.852234 1075.900269,936.860718 
	C1054.984375,937.028198 1034.066650,936.985229 1013.149414,936.985229 
	C1013.021667,936.348938 1012.893921,935.712646 1012.766174,935.076355 
	C1014.175415,934.713379 1015.568115,934.137024 1016.996887,934.026184 
	C1021.933533,933.643250 1024.700928,930.960266 1025.262695,925.235474 
	C1025.594482,905.204407 1025.684570,885.955994 1025.737183,866.707581 
	C1025.738892,866.077942 1025.357666,865.447266 1025.154907,864.817078 
	C1026.165894,855.708191 1018.060730,856.706238 1012.685364,854.677734 
	C1012.869019,854.296753 1013.052673,853.915771 1013.236328,853.534790 
	C1034.602783,853.534790 1055.969360,853.534790 1077.820435,853.534790 
	C1078.289185,859.475464 1078.772461,865.599060 1079.255737,871.722595 
	C1078.669800,871.941467 1078.083740,872.160339 1077.497803,872.379211 
	C1076.672485,870.998596 1075.593994,869.708374 1075.063599,868.222412 
	C1072.140137,860.030640 1069.415039,858.004883 1060.808472,858.001282 
	C1053.498047,857.998230 1046.187622,858.029480 1038.149414,858.438477 
	C1037.560303,869.324890 1037.699097,879.818359 1037.837891,890.311768 
	C1046.014526,890.139282 1054.263428,890.509094 1062.320312,889.436462 
	C1064.501709,889.145935 1066.197144,884.551697 1067.924927,881.812622 
	C1068.661987,880.644348 1068.910400,879.167847 1069.755615,876.766602 
	C1072.289795,885.494995 1071.262817,906.528381 1068.619141,907.939697 
	C1068.086792,906.098572 1067.494629,904.291626 1067.045654,902.449768 
	C1065.940552,897.915588 1062.846191,896.062561 1058.443848,896.032349 
	C1051.956177,895.987732 1045.467896,896.018555 1038.205322,896.331299 
	C1037.570679,906.874573 1037.710449,917.103760 1037.850342,927.332886 
z" data-index="10" style="opacity: 1;"></path>
<path fill="#0773C1" opacity="1.000000" stroke="none" d="
M713.102844,936.892273 
	C704.559448,936.959045 696.436646,936.959045 688.313904,936.959045 
	C688.129150,936.588196 687.944397,936.217346 687.759644,935.846497 
	C688.530212,935.209045 689.203003,934.315002 690.087952,933.977722 
	C694.294861,932.374390 697.127136,929.370789 698.843628,925.362732 
	C705.610779,909.561035 712.263672,893.710449 719.005066,877.897644 
	C722.376221,869.990112 725.773560,862.091553 729.343750,854.273315 
	C729.940674,852.966003 731.482849,852.090454 732.588257,851.015381 
	C733.412903,852.255249 734.458069,853.401672 735.028381,854.749084 
	C741.413208,869.832947 747.744446,884.939636 754.047729,900.057800 
	C757.164429,907.532898 760.046326,915.109314 763.310608,922.518188 
	C765.707642,927.958618 768.617554,933.091492 775.435303,934.103088 
	C776.134644,934.206909 776.678345,935.359375 777.966431,936.751831 
	C765.670532,936.751831 754.575195,936.751831 743.479919,936.751831 
	C743.284668,936.458069 743.089417,936.164307 742.894226,935.870544 
	C743.735352,935.249878 744.496521,934.279114 745.430725,934.065613 
	C751.275208,932.729797 752.310486,931.477478 750.892700,925.965759 
	C750.131348,923.006165 748.760864,920.201843 747.645203,917.335266 
	C746.596863,914.641663 745.521912,911.958435 744.408142,909.142944 
	C733.934204,909.142944 723.460632,909.142944 712.594727,909.142944 
	C710.512207,914.178955 708.414001,919.383850 706.211121,924.544067 
	C703.875305,930.015808 704.618103,931.771729 710.271729,933.572144 
	C711.505005,933.964905 712.798523,934.185669 713.987549,934.673157 
	C714.106873,934.721985 713.690979,936.076782 713.102844,936.892273 
M724.477356,881.069153 
	C721.382629,888.506470 718.287964,895.943787 715.086670,903.637207 
	C724.140320,903.637207 732.919189,903.637207 742.220337,903.637207 
	C737.653748,892.828003 733.299744,882.522034 728.693542,871.619263 
	C727.217407,875.079224 726.074341,877.758362 724.477356,881.069153 
z" data-index="11" style="opacity: 1; visibility: visible;"></path>
<path fill="#0773C1" opacity="1.000000" stroke="none" d="
M1106.666870,931.096558 
	C1109.843018,932.665955 1112.735840,933.948853 1115.628540,935.231750 
	C1106.907471,937.706421 1098.085815,936.706360 1089.316284,936.931396 
	C1089.131470,936.533386 1088.946533,936.135376 1088.761597,935.737366 
	C1089.560059,935.131287 1090.276123,934.330444 1091.171021,933.952454 
	C1095.261230,932.224670 1098.173218,929.303040 1099.887085,925.285767 
	C1106.633179,909.473450 1113.280151,893.618896 1120.008789,877.799133 
	C1123.309937,870.037476 1126.621826,862.277222 1130.143555,854.615051 
	C1130.804199,853.177673 1132.482910,852.208130 1133.691895,851.022705 
	C1134.485229,852.294800 1135.464478,853.487976 1136.043823,854.851013 
	C1143.404419,872.170166 1150.733276,889.502930 1158.009277,906.857788 
	C1160.135864,911.930054 1161.876587,917.170532 1164.144531,922.175110 
	C1166.656616,927.718750 1169.424438,933.200378 1176.558105,934.102417 
	C1177.168213,934.179565 1177.654663,935.233215 1178.864502,936.567932 
	C1166.699341,936.567932 1155.533813,936.567932 1144.368408,936.567932 
	C1144.192017,936.304932 1144.015625,936.041870 1143.839233,935.778870 
	C1144.741089,935.187805 1145.572021,934.277588 1146.556641,934.058289 
	C1152.204956,932.800415 1153.519165,931.303650 1151.860718,925.849670 
	C1150.132568,920.165710 1147.647705,914.711731 1145.478638,909.118286 
	C1134.808716,909.118286 1124.333618,909.118286 1113.540894,909.118286 
	C1111.327637,914.577454 1108.989746,920.053467 1106.921753,925.629517 
	C1106.336914,927.205994 1106.541138,929.075073 1106.666870,931.096558 
M1142.483276,902.119507 
	C1138.332520,892.169678 1134.181885,882.219849 1129.755615,871.609314 
	C1127.194336,877.477356 1124.921997,882.592590 1122.725830,887.740417 
	C1120.481323,893.001709 1118.311646,898.294861 1115.930054,904.003418 
	C1124.371216,904.003418 1132.166504,904.041748 1139.960205,903.954163 
	C1140.914795,903.943481 1141.861694,903.258179 1142.483276,902.119507 
z" data-index="12" style="opacity: 1;"></path>
<path fill="#0773C1" opacity="1.000000" stroke="none" d="
M250.079102,851.848999 
	C251.087006,851.847290 252.792175,852.162415 252.843674,852.651611 
	C253.687378,860.666870 254.380280,868.700134 254.932632,876.741333 
	C255.003418,877.771790 254.098801,878.869385 253.646057,879.935913 
	C252.959183,879.037842 251.966003,878.240295 251.632812,877.226013 
	C248.334534,867.185608 242.389267,859.807922 231.755768,857.012146 
	C217.575684,853.283936 203.515533,861.325378 199.087921,875.404419 
	C194.972549,888.490479 194.434128,901.735168 199.066772,914.889160 
	C203.287537,926.873901 218.485474,934.892212 231.518951,932.343872 
	C240.546356,930.578918 246.650558,926.043579 251.538177,918.888855 
	C251.997604,918.216309 252.639847,917.576172 253.344513,917.188965 
	C254.099152,916.774231 255.028107,916.676636 255.880981,916.440552 
	C255.911865,917.444336 256.358398,918.715881 255.910492,919.411194 
	C250.403366,927.959900 243.726334,934.963623 233.241516,937.439026 
	C218.021408,941.032410 204.226608,938.693237 193.017212,927.396729 
	C186.215866,920.542358 183.029419,911.819702 181.822601,902.022766 
	C180.285767,889.546570 182.804031,878.364990 189.954926,868.288696 
	C196.807541,858.632751 206.095688,853.040100 218.198715,851.889832 
	C227.214676,851.032959 235.597763,852.187500 243.686646,856.214600 
	C247.673523,858.199463 248.690765,854.841736 250.079102,851.848999 
z" data-index="13"></path>
<path fill="#0271C0" opacity="1.000000" stroke="none" d="
M664.843628,925.182922 
	C664.848145,933.149414 671.052795,933.941223 677.230408,934.764282 
	C677.045227,935.243713 676.860107,935.723206 676.674927,936.202637 
	C664.876709,936.202637 653.078552,936.202637 640.368469,936.202637 
	C644.040100,932.388489 652.261230,934.422729 652.284180,926.182739 
	C652.680908,924.609070 652.916565,923.793213 652.917969,922.976929 
	C652.953186,902.754395 652.978516,882.531799 652.936035,862.309387 
	C652.933777,861.252075 652.316650,860.195984 651.985779,859.139343 
	C649.161499,859.092285 646.309448,859.282776 643.517761,858.956665 
	C631.976807,857.608643 628.179138,863.968689 626.473999,872.750488 
	C623.641785,871.769104 622.878418,864.379822 624.533142,853.281372 
	C647.169495,853.281372 669.847778,853.281372 692.927246,853.281372 
	C693.389954,859.851624 693.836853,866.198364 694.391479,874.074951 
	C692.466797,872.625427 691.276428,872.204712 691.115479,871.536133 
	C688.798462,861.910034 684.828247,858.586548 673.414429,858.986938 
	C670.923096,859.074280 668.426819,859.018738 665.235718,859.414978 
	C664.370850,860.772583 664.058167,861.744019 664.056641,862.716003 
	C664.025574,882.086670 664.012878,901.457520 664.063171,920.828125 
	C664.066895,922.280396 664.571716,923.731323 664.843628,925.182922 
z" data-index="14" style="opacity: 1;"></path>
<path fill="#0271C0" opacity="1.000000" stroke="none" d="
M1276.985840,859.139404 
	C1274.161377,859.092346 1271.309448,859.282898 1268.517700,858.956787 
	C1256.977295,857.608826 1253.179199,863.968018 1251.473999,872.750610 
	C1248.641968,871.769165 1247.878540,864.379272 1249.532959,853.281372 
	C1272.169434,853.281372 1294.847778,853.281372 1317.927246,853.281372 
	C1318.390015,859.851624 1318.836914,866.198303 1319.391602,874.074890 
	C1317.466797,872.625366 1316.276245,872.204651 1316.115479,871.536133 
	C1313.798828,861.910828 1309.829346,858.586609 1298.414429,858.986877 
	C1295.923096,859.074219 1293.426880,859.018799 1290.235840,859.415039 
	C1289.370850,860.772705 1289.058105,861.744080 1289.056519,862.716064 
	C1289.025391,882.086609 1289.012939,901.457275 1289.063110,920.827698 
	C1289.066895,922.279968 1289.571655,923.730896 1289.843628,925.182434 
	C1289.848145,933.148804 1296.051758,933.941833 1302.230347,934.763916 
	C1302.045044,935.243469 1301.859863,935.722961 1301.674683,936.202515 
	C1289.876587,936.202515 1278.078369,936.202515 1265.368408,936.202515 
	C1269.040283,932.388611 1277.261475,934.422729 1277.284180,926.182495 
	C1277.680908,924.608887 1277.916626,923.793030 1277.918091,922.976746 
	C1277.953247,902.754272 1277.978638,882.531738 1277.936157,862.309387 
	C1277.933960,861.252014 1277.316650,860.195984 1276.985840,859.139404 
z" data-index="15"></path>
<path fill="#0472C1" opacity="1.000000" stroke="none" d="
M365.833038,925.143677 
	C366.451965,929.172668 368.658875,931.140808 372.873810,931.037231 
	C378.689850,930.894348 384.513214,931.076904 390.331299,930.984253 
	C399.031830,930.845825 406.541138,925.034912 409.934387,915.974487 
	C410.304230,914.986938 410.711792,914.013550 411.848511,913.217712 
	C413.290405,921.662842 407.609528,928.628784 407.001068,936.740051 
	C384.931976,936.740051 363.052551,936.740051 341.173096,936.740051 
	C341.021790,936.309998 340.870483,935.880005 340.719177,935.449951 
	C341.820496,934.958191 342.892883,934.128235 344.027954,934.031128 
	C350.124359,933.509888 352.028656,931.859924 353.261993,925.082397 
	C353.584076,905.142944 353.675629,885.975159 353.730591,866.807373 
	C353.732391,866.178650 353.362305,865.548950 353.165558,864.919678 
	C352.388763,858.384277 350.415527,856.553284 343.816345,855.984680 
	C342.864807,855.902771 341.966156,855.206909 341.043030,854.795166 
	C341.614838,854.206360 342.182587,853.108276 342.759033,853.103699 
	C355.117920,853.004944 367.477753,853.028687 380.044617,853.645081 
	C375.705627,857.770447 366.174805,854.562805 365.725159,864.724121 
	C365.378723,884.747986 365.296326,904.001160 365.251434,923.254333 
	C365.249969,923.883667 365.630554,924.513855 365.833038,925.143677 
z" data-index="16"></path>
<path fill="#0472C1" opacity="1.000000" stroke="none" d="
M1194.165527,864.919434 
	C1193.388672,858.384094 1191.415527,856.553345 1184.816040,855.984741 
	C1183.864502,855.902771 1182.966064,855.206787 1182.042969,854.794983 
	C1182.614868,854.206238 1183.182739,853.108154 1183.759277,853.103638 
	C1196.118042,853.004883 1208.477783,853.028687 1221.044678,853.645142 
	C1216.705444,857.770325 1207.174805,854.562866 1206.725098,864.724121 
	C1206.378784,884.748169 1206.296265,904.001526 1206.251343,923.255005 
	C1206.249878,923.884338 1206.630493,924.514587 1206.833008,925.144409 
	C1207.452515,929.173096 1209.659790,931.140808 1213.874268,931.037354 
	C1219.690308,930.894470 1225.513672,931.077087 1231.331787,930.984375 
	C1240.031982,930.845764 1247.540894,925.034668 1250.934326,915.974182 
	C1251.306274,914.981018 1251.716431,914.002197 1252.848877,913.208252 
	C1254.292969,921.663391 1248.608032,928.628540 1248.001709,936.740112 
	C1225.931885,936.740112 1204.052490,936.740112 1182.173218,936.740112 
	C1182.021851,936.310120 1181.870483,935.880066 1181.719116,935.450073 
	C1182.820435,934.958252 1183.892700,934.128113 1185.027832,934.031067 
	C1191.124634,933.509705 1193.028442,931.860229 1194.261963,925.082397 
	C1194.584106,905.142822 1194.675659,885.975037 1194.730591,866.807129 
	C1194.732300,866.178406 1194.362305,865.548706 1194.165527,864.919434 
z" data-index="17" style="opacity: 1;"></path>
<path fill="#0271C0" opacity="1.000000" stroke="none" d="
M604.037598,926.408325 
	C605.068848,933.815735 610.786987,933.721436 617.149719,934.558838 
	C615.568237,935.834351 614.873474,936.883240 614.169250,936.889587 
	C602.884705,936.992310 591.598877,936.962097 580.313354,936.962097 
	C580.149902,936.534424 579.986511,936.106812 579.823059,935.679138 
	C580.745972,935.112793 581.624268,934.153687 582.598816,934.043091 
	C589.424927,933.268799 591.865295,931.168457 591.930603,924.250549 
	C592.117737,904.444946 592.083008,884.635803 591.946350,864.829407 
	C591.904358,858.746765 589.622314,856.813843 583.153442,855.976257 
	C581.998413,855.826782 580.923523,855.058289 580.040588,853.854126 
	C592.171875,853.030029 604.072449,852.781067 615.891357,854.222656 
	C604.322815,857.673340 604.126648,857.885864 604.030945,871.537415 
	C603.903687,889.679382 604.007263,907.822937 604.037598,926.408325 
z" data-index="18" style="opacity: 1;"></path>
<path fill="#7DACDB" opacity="1.000000" stroke="none" d="
M1330.845703,563.357666 
	C1330.555420,560.331726 1330.079468,556.853699 1330.078247,553.375549 
	C1330.038696,441.217621 1330.038940,329.059692 1330.073486,216.901779 
	C1330.074463,213.588272 1330.507935,210.274887 1330.776611,206.565918 
	C1330.846680,207.002106 1330.909180,207.833847 1330.909180,208.665588 
	C1330.902832,326.745575 1330.891968,444.825592 1330.845703,563.357666 
z" data-index="19"></path>
<path fill="#669ED5" opacity="1.000000" stroke="none" d="
M1026.418701,395.060181 
	C1027.667847,394.737518 1029.387939,394.050323 1031.108521,394.049072 
	C1105.286133,393.995361 1179.463867,393.999969 1253.641479,394.020508 
	C1255.120117,394.020935 1256.598755,394.294006 1258.393188,394.670563 
	C1213.911011,394.934235 1169.113159,394.974243 1124.315186,394.997894 
	C1091.840088,395.015015 1059.365112,395.010468 1026.418701,395.060181 
z" data-index="20"></path>
<path fill="#458CCC" opacity="1.000000" stroke="none" d="
M1097.530762,146.649338 
	C1096.912231,134.005341 1096.912231,134.005539 1084.030518,134.005280 
	C1017.047546,134.003906 950.064514,134.002411 882.623535,134.000305 
	C883.312561,133.665985 884.459473,133.041000 885.606750,133.040298 
	C955.661621,132.997406 1025.716553,133.005417 1095.771362,133.014450 
	C1096.263306,133.014511 1096.755249,133.093918 1097.827515,133.186234 
	C1097.827515,137.553680 1097.827515,141.961517 1097.530762,146.649338 
z" data-index="21"></path>
<path fill="#458CCC" opacity="1.000000" stroke="none" d="
M1401.671753,133.601410 
	C1330.583618,134.000076 1259.332520,134.000504 1187.623535,134.000259 
	C1188.314087,133.665939 1189.462646,133.041077 1190.611572,133.040329 
	C1260.250122,132.995163 1329.888672,133.000656 1399.527222,133.010757 
	C1400.187744,133.010849 1400.848389,133.136276 1401.671753,133.601410 
z" data-index="22"></path>
<path fill="#86B2DD" opacity="1.000000" stroke="none" d="
M1025.840454,564.332458 
	C1025.556519,561.473999 1025.091064,558.165405 1025.086792,554.856262 
	C1025.020752,503.036896 1025.011475,451.217407 1025.010986,399.397949 
	C1025.010986,398.081421 1025.260864,396.764862 1025.748535,395.196655 
	C1026.069702,440.927826 1026.043091,486.910645 1025.998657,532.893494 
	C1025.988647,543.223022 1025.916870,553.552551 1025.840454,564.332458 
z" data-index="23"></path>
<path fill="#86B2DD" opacity="1.000000" stroke="none" d="
M1025.920166,366.198273 
	C1025.578369,365.216217 1025.031128,363.795868 1025.030518,362.375366 
	C1025.010620,313.124084 1025.030151,263.872742 1025.097900,214.621536 
	C1025.101807,211.816406 1025.560181,209.011887 1025.801025,205.834808 
	C1025.853271,258.895020 1025.911499,312.327454 1025.920166,366.198273 
z" data-index="24" style="opacity: 1;"></path>
<path fill="#70A4D7" opacity="1.000000" stroke="none" d="
M651.991333,859.597290 
	C652.316650,860.195984 652.933777,861.252075 652.936035,862.309387 
	C652.978516,882.531799 652.953186,902.754395 652.917969,922.976929 
	C652.916565,923.793213 652.680908,924.609070 652.357544,925.812927 
	C652.106018,904.152222 652.051453,882.103699 651.991333,859.597290 
z" data-index="25" style="opacity: 1;"></path>
<path fill="#70A4D7" opacity="1.000000" stroke="none" d="
M1276.991455,859.597290 
	C1277.316650,860.195984 1277.933960,861.252014 1277.936157,862.309387 
	C1277.978638,882.531738 1277.953247,902.754272 1277.918091,922.976746 
	C1277.916626,923.793030 1277.680908,924.608887 1277.357666,925.812622 
	C1277.106079,904.151978 1277.051514,882.103638 1276.991455,859.597290 
z" data-index="26"></path>
<path fill="#4A8FCD" opacity="1.000000" stroke="none" d="
M1289.899414,924.697632 
	C1289.571655,923.730896 1289.066895,922.279968 1289.063110,920.827698 
	C1289.012939,901.457275 1289.025391,882.086609 1289.056519,862.716064 
	C1289.058105,861.744080 1289.370850,860.772705 1289.772339,859.474854 
	C1289.989014,880.836670 1289.972046,902.524780 1289.899414,924.697632 
z" data-index="27"></path>
<path fill="#4A8FCD" opacity="1.000000" stroke="none" d="
M664.899414,924.698059 
	C664.571716,923.731323 664.066895,922.280396 664.063171,920.828125 
	C664.012878,901.457520 664.025574,882.086670 664.056641,862.716003 
	C664.058167,861.744019 664.370850,860.772583 664.772461,859.474731 
	C664.989197,880.836731 664.972168,902.524963 664.899414,924.698059 
z" data-index="28"></path>
<path fill="#4A8FCD" opacity="1.000000" stroke="none" d="
M995.887024,925.501648 
	C995.555969,924.507202 995.058594,923.050293 995.054260,921.591858 
	C995.001526,903.801880 995.012573,886.011719 995.042480,868.221619 
	C995.044434,867.073792 995.338379,865.926453 995.662415,864.402405 
	C995.868896,884.363403 995.909363,904.700928 995.887024,925.501648 
z" data-index="29"></path>
<path fill="#4A8FCD" opacity="1.000000" stroke="none" d="
M1398.887085,925.501099 
	C1398.556030,924.506592 1398.058960,923.049744 1398.054565,921.591370 
	C1398.001831,903.801758 1398.012573,886.011841 1398.042603,868.222107 
	C1398.044556,867.074280 1398.338257,865.926941 1398.662354,864.403076 
	C1398.868896,884.363770 1398.909424,904.700867 1398.887085,925.501099 
z" data-index="30"></path>
<path fill="#4A8FCD" opacity="1.000000" stroke="none" d="
M1194.107178,865.394165 
	C1194.362305,865.548706 1194.732300,866.178406 1194.730591,866.807129 
	C1194.675659,885.975037 1194.584106,905.142822 1194.330811,924.697876 
	C1194.125122,905.346313 1194.086914,885.607605 1194.107178,865.394165 
z" data-index="31"></path>
<path fill="#6CA2D5" opacity="1.000000" stroke="none" d="
M1206.882690,924.662109 
	C1206.630493,924.514587 1206.249878,923.884338 1206.251343,923.255005 
	C1206.296265,904.001526 1206.378784,884.748169 1206.653320,865.096558 
	C1206.878296,884.525513 1206.905396,904.352661 1206.882690,924.662109 
z" data-index="32"></path>
<path fill="#4A8FCD" opacity="1.000000" stroke="none" d="
M1025.099365,865.301941 
	C1025.357666,865.447266 1025.738892,866.077942 1025.737183,866.707581 
	C1025.684570,885.955994 1025.594482,905.204407 1025.328857,924.852295 
	C1025.113037,905.430176 1025.078491,885.608459 1025.099365,865.301941 
z" data-index="33"></path>
<path fill="#4A8FCD" opacity="1.000000" stroke="none" d="
M430.099426,865.301514 
	C430.357666,865.446716 430.738892,866.077454 430.737183,866.707092 
	C430.684631,885.955505 430.594482,905.203796 430.328857,924.851562 
	C430.113007,905.429443 430.078430,885.607910 430.099426,865.301514 
z" data-index="34"></path>
<path fill="#6CA2D5" opacity="1.000000" stroke="none" d="
M365.882782,924.661499 
	C365.630554,924.513855 365.249969,923.883667 365.251434,923.254333 
	C365.296326,904.001160 365.378723,884.747986 365.653198,865.096558 
	C365.878235,884.525330 365.905396,904.352295 365.882782,924.661499 
z" data-index="35"></path>
<path fill="#4A8FCD" opacity="1.000000" stroke="none" d="
M353.107178,865.394348 
	C353.362305,865.548950 353.732391,866.178650 353.730591,866.807373 
	C353.675629,885.975159 353.584076,905.142944 353.330750,924.697815 
	C353.125122,905.346313 353.086975,885.607666 353.107178,865.394348 
z" data-index="36"></path>
<path fill="#4A8FCD" opacity="1.000000" stroke="none" d="
M275.099426,865.301514 
	C275.357666,865.446716 275.738922,866.077454 275.737183,866.707092 
	C275.684601,885.955505 275.594452,905.203796 275.328857,924.851562 
	C275.113007,905.429443 275.078461,885.607910 275.099426,865.301514 
z" data-index="37"></path>
<path fill="#458CCC" opacity="1.000000" stroke="none" d="
M945.704102,896.945312 
	C949.187744,896.624207 953.117188,896.071899 957.044250,896.088867 
	C965.471313,896.125244 973.897095,896.455322 982.691040,896.865540 
	C970.755432,897.034668 958.452148,897.003418 945.704102,896.945312 
z" data-index="38"></path>
<path fill="#458CCC" opacity="1.000000" stroke="none" d="
M1348.704224,896.945251 
	C1352.187866,896.624084 1356.117310,896.071777 1360.044312,896.088745 
	C1368.471313,896.125183 1376.896973,896.455322 1385.690918,896.865540 
	C1373.755371,897.034668 1361.452148,897.003418 1348.704224,896.945251 
z" data-index="39"></path>
<path fill="#6CA2D5" opacity="1.000000" stroke="none" d="
M831.802246,931.099915 
	C825.852783,931.425903 819.409058,931.849426 812.960999,931.933411 
	C807.827637,932.000305 802.688843,931.652649 797.274536,931.166016 
	C808.433105,930.912292 819.869629,930.981567 831.802246,931.099915 
z" data-index="40"></path>
<path fill="#70A4D7" opacity="1.000000" stroke="none" d="
M1037.907959,889.819763 
	C1037.699097,879.818359 1037.560303,869.324890 1037.685547,858.531555 
	C1037.959106,868.596985 1037.968506,878.962402 1037.907959,889.819763 
z" data-index="41"></path>
<path fill="#70A4D7" opacity="1.000000" stroke="none" d="
M442.907959,889.819702 
	C442.699097,879.818359 442.560272,869.324890 442.685669,858.531494 
	C442.959229,868.596924 442.968597,878.962341 442.907959,889.819702 
z" data-index="42"></path>
<path fill="#70A4D7" opacity="1.000000" stroke="none" d="
M287.907959,889.819702 
	C287.699127,879.818359 287.560303,869.324890 287.685669,858.531494 
	C287.959229,868.596924 287.968597,878.962341 287.907959,889.819702 
z" data-index="43"></path>
<path fill="#70A4D7" opacity="1.000000" stroke="none" d="
M1037.900879,926.834473 
	C1037.710449,917.103760 1037.570679,906.874573 1037.741455,896.369995 
	C1038.018555,906.175049 1037.985107,916.255615 1037.900879,926.834473 
z" data-index="44"></path>
<path fill="#70A4D7" opacity="1.000000" stroke="none" d="
M442.900940,926.834778 
	C442.710510,917.103943 442.570679,906.874695 442.741425,896.370117 
	C443.018524,906.175293 442.985046,916.255859 442.900940,926.834778 
z" data-index="45"></path>
<path fill="#70A4D7" opacity="1.000000" stroke="none" d="
M287.900940,926.834778 
	C287.710480,917.103943 287.570648,906.874695 287.741394,896.370117 
	C288.018524,906.175293 287.985046,916.255859 287.900940,926.834778 
z" data-index="46"></path>
<path fill="#6CA2D5" opacity="1.000000" stroke="none" d="
M982.946655,897.429016 
	C983.273987,899.653870 983.935242,902.348267 983.944946,905.045044 
	C983.969299,911.803711 983.698730,918.563354 983.358643,925.701904 
	C983.108643,916.687317 983.046326,907.293518 982.946655,897.429016 
z" data-index="47"></path>
<path fill="#6CA2D5" opacity="1.000000" stroke="none" d="
M1385.946777,897.429016 
	C1386.274048,899.653870 1386.935059,902.348389 1386.944824,905.045166 
	C1386.969116,911.803833 1386.698486,918.563538 1386.358643,925.702026 
	C1386.108643,916.687439 1386.046265,907.293518 1385.946777,897.429016 
z" data-index="48"></path>
<path fill="#6CA2D5" opacity="1.000000" stroke="none" d="
M1386.124390,863.555664 
	C1386.311646,872.417908 1386.444092,881.739197 1386.342407,891.372192 
	C1386.095337,882.460876 1386.082397,873.237793 1386.124390,863.555664 
z" data-index="49"></path>
<path fill="#6CA2D5" opacity="1.000000" stroke="none" d="
M983.124390,863.556274 
	C983.311646,872.418274 983.444092,881.739380 983.342529,891.372192 
	C983.095459,882.461060 983.082520,873.238159 983.124390,863.556274 
z" data-index="50"></path>
<path fill="#7DACDB" opacity="1.000000" stroke="none" d="
M803.080505,858.907104 
	C812.153381,858.695801 821.731628,858.531494 831.572510,858.683594 
	C822.418701,858.984619 813.002319,858.969360 803.080505,858.907104 
z" data-index="51"></path>

<path fill="#000000" opacity="1.000000" stroke="none" d="
M724.704346,880.753296 
	C726.074341,877.758362 727.217407,875.079224 728.693542,871.619263 
	C733.299744,882.522034 737.653748,892.828003 742.220337,903.637207 
	C732.919189,903.637207 724.140320,903.637207 715.086670,903.637207 
	C718.287964,895.943787 721.382629,888.506470 724.704346,880.753296 
z" data-index="53" style="opacity: 1; visibility: hidden; fill: rgb(121, 40, 202);"></path>

</svg>